# Blender 4.0.2
# www.blender.org
o Cube.008
v 0.628069 -0.022689 -2.159811
v 0.998961 -0.348202 -2.159811
v 0.628069 -0.022689 -1.666334
v 0.998961 -0.348202 -1.666334
v 0.953582 0.348202 -2.159811
v 1.324474 0.022689 -2.159811
v 0.953582 0.348202 -1.666334
v 1.324474 0.022689 -1.666334
vn -0.6596 -0.7516 -0.0000
vn -0.0000 -0.0000 1.0000
vn 0.6596 0.7516 -0.0000
vn -0.0000 -0.0000 -1.0000
vn -0.7516 0.6596 -0.0000
vn 0.7516 -0.6596 -0.0000
vt 0.184478 0.862974
vt 0.164440 0.883013
vt 0.164440 0.862974
vt 0.184478 0.883013
vt 0.164440 0.903051
vt 0.184478 0.903051
vt 0.164440 0.923089
vt 0.184478 0.923089
vt 0.164440 0.943128
vt 0.144401 0.923089
vt 0.144401 0.903051
vt 1.012600 1.022020
vt -0.016221 -0.006805
vt 1.012600 -0.006805
vt 0.184478 0.943128
vt -0.016222 1.022019
s 0
f 2/1/1 3/2/1 1/3/1
f 4/4/2 7/5/2 3/2/2
f 8/6/3 5/7/3 7/5/3
f 6/8/4 1/9/4 5/7/4
f 7/5/5 1/10/5 3/11/5
f 4/12/6 6/13/6 8/14/6
f 2/1/1 4/4/1 3/2/1
f 4/4/2 8/6/2 7/5/2
f 8/6/3 6/8/3 5/7/3
f 6/8/4 2/15/4 1/9/4
f 7/5/5 5/7/5 1/10/5
f 4/12/6 2/16/6 6/13/6
